<?xml version="1.0" standalone="no"?><!DOCTYPE svg PUBLIC "-//W3C//DTD SVG 1.1//EN" "http://www.w3.org/Graphics/SVG/1.1/DTD/svg11.dtd"><svg t="1772365476447" class="icon" viewBox="0 0 1024 1024" version="1.1" xmlns="http://www.w3.org/2000/svg" p-id="16985" width="256" height="256" xmlns:xlink="http://www.w3.org/1999/xlink"><path d="M136.448 247.936c17.344 9.472 40.64 13.44 69.952 11.84 19.968 0 34.624-1.6 43.968-4.736 18.752-4.736 27.392 2.432 26.048 21.376-5.312 12.672-9.344 33.216-11.968 61.696-1.344 19.008-13.312 27.648-36.032 26.112H160.448c-18.624-1.6-28.608 7.872-29.952 28.48-6.656 71.168-25.344 126.464-56 166.016-14.656 17.408-27.328 20.608-38.016 9.536-8-14.272-7.296-25.344 2.048-33.216 65.28-71.168 85.952-156.608 61.952-256.256-1.344-26.88 10.688-37.12 35.968-30.848z m72 135.232c8 1.6 13.312 10.304 16 26.112 0 14.208-0.64 26.88-1.984 37.952 0 4.736 1.344 7.104 3.968 7.104 5.312 0 12.672 0.768 22.016 2.368 10.688 0 17.344 0.768 19.968 2.368 18.688 3.2 25.984 11.072 22.016 23.744-3.968 7.936-3.968 23.744 0 47.424 0 1.6 0.64 11.84 1.984 30.848v19.008c1.344 23.744-4.672 37.184-17.984 40.384-8 0-11.968-11.84-11.968-35.648 0-45.888-0.64-73.536-1.984-83.008 0-14.208-11.328-22.144-33.984-23.744-2.688 0-3.968 1.6-3.968 4.736v144.768c0 33.216-5.312 49.792-16 49.792-8 0-12.672-15.808-14.016-47.424 2.624-36.416 3.968-83.84 3.968-142.4 0-6.336-1.984-8.704-6.016-7.104-24 1.6-38.016 10.304-41.984 26.112-1.344 12.608-3.328 44.288-6.016 94.912-1.344 20.608-8 31.68-19.968 33.216-8-3.136-10.688-15.04-8-35.584 0-4.8 1.344-19.84 3.968-45.12l6.016-73.536c1.344-20.544 7.36-29.248 17.984-26.112 2.688 3.136 14.656 3.968 35.968 2.368 5.312-1.6 9.984-2.368 14.016-2.368s5.312-2.368 4.032-7.104v-40.32c1.28-12.672 5.312-20.544 11.968-23.744zM132.48 326.272c0 9.472 3.968 14.208 11.968 14.208h72c11.968-1.6 18.688-7.104 19.968-16.576 2.688-6.336 3.968-15.808 3.968-28.48 1.344-9.472-3.968-14.208-16-14.208-21.312-3.136-47.296-3.136-77.952 0-10.688-1.6-16 4.736-16 19.008 0 3.136 0.64 7.936 1.984 14.208l0.064 11.84z m329.92-94.912c11.968 3.136 17.344 19.008 16 47.424-2.688 80.64-4.672 143.936-6.016 189.76 5.312 77.568-0.704 125.76-17.984 144.832-50.624 66.432-89.28 83.84-115.968 52.16-3.968-6.336-5.312-11.072-3.968-14.208 1.344-4.736 4.672-7.104 9.984-7.104 29.312 0 56.64-14.208 81.984-42.688 17.28-23.808 24.64-66.496 21.952-128.192 0-6.336-3.328-9.472-9.984-9.472-30.656-3.2-54.656 6.272-72 28.416-10.688 14.272-19.968 17.408-27.968 9.536-6.656-12.672-5.376-28.48 3.968-47.488 5.312-3.136 6.656-36.352 4.032-99.648 1.344-20.544 6.016-31.616 14.016-33.216 10.688 6.336 16.64 22.144 17.984 47.424v30.848a571.2 571.2 0 0 0-2.048 35.648c-1.344 7.872 1.344 11.072 8 9.472 3.968-1.6 13.312-3.136 27.968-4.736 14.656-3.136 24-4.736 27.968-4.736 6.656-1.6 9.344-5.504 8-11.84 1.344-36.352 0.64-83.84-1.984-142.336-1.28-26.944 4.032-43.52 16.064-49.856zM604.288 416.384c53.376 3.136 105.344 2.368 155.968-2.368 10.688 1.6 16.64 6.336 17.984 14.208 1.344 9.472-5.312 14.208-19.968 14.208a287.232 287.232 0 0 0-38.016-2.368c-9.344-1.6-13.312 3.136-11.968 14.208a156.416 156.416 0 0 0-1.984 26.112c0 4.736 2.688 7.104 8 7.104h16c17.344-1.6 27.968-0.768 32 2.368 6.656 1.6 9.344 5.504 8 11.84-2.688 7.936-7.36 11.84-14.016 11.84h-11.968a329.408 329.408 0 0 0-32-2.368c-3.968-1.6-6.016 2.368-6.016 11.84a240 240 0 0 0-1.984 33.216c21.312 3.136 57.984 14.208 109.952 33.216 73.28 30.08 131.968 45.12 175.936 45.12 8 0 11.968 1.6 11.968 4.736 1.344 3.136-1.344 8.704-8 16.576-26.688 20.544-55.296 26.112-85.952 16.576-149.312-80.704-241.92-115.52-277.952-104.448h-1.984c-5.312 1.792-8.704 4.16-9.984 7.36a68.544 68.544 0 0 0-6.016 9.472c-13.312 19.008-22.016 30.08-25.984 33.28-14.656 9.472-25.28 11.072-31.936 4.736-3.968-11.072-0.64-20.544 9.984-28.544 33.28-23.744 53.248-57.728 59.968-102.016 1.344-7.936 4.672-11.072 9.984-9.472 8 4.736 12.032 11.072 12.032 19.008a229.376 229.376 0 0 1-16.064 37.952c-1.344 4.736 0 7.936 3.968 9.472 6.656 0 18.688 0.768 36.032 2.368h14.016a2620.032 2620.032 0 0 0-3.968-99.648c1.344-6.336-2.688-9.472-11.968-9.472-34.688 0-54.72 0.768-60.032 2.368-20.032 7.936-32 7.104-35.968-2.368 1.344-15.808 11.968-24.512 31.936-26.112z m42.048-170.816c3.968 1.6 35.328 2.368 93.952 2.368 18.688 3.136 27.328 15.04 25.984 35.584 0 22.144-2.688 47.424-8 75.904-5.312 19.008-16 26.88-32 23.744-13.312-4.736-34.624-5.504-64-2.368-19.968 7.936-32.64 3.2-38.016-14.208-3.968-26.88-6.016-58.496-6.016-94.912 1.344-20.544 10.688-29.248 28.096-26.112z m8 56.96c37.312 0 64 0.768 80 2.368 3.968 0 5.312-3.136 3.968-9.472 0-14.208-5.312-22.144-16-23.744-24-4.736-41.984-6.336-53.952-4.736a31.104 31.104 0 0 0-22.016 28.48c-1.344 6.336 1.344 8.704 8 7.104z m1.984 21.376c-6.656 0-9.984 3.136-9.984 9.472 0 14.208 5.312 22.144 16 23.744 19.968 1.6 38.016 1.6 53.952 0 13.312-1.6 20.672-7.936 22.016-19.008 0-6.336-2.688-10.304-8-11.84a864.256 864.256 0 0 0-73.984-2.368z m329.92-38.016c-9.344 11.072-20.672 15.04-33.984 11.84-6.656-4.736-18.688-7.936-35.968-9.472-9.344 0-14.656 3.136-16 9.472 0 3.136-0.64 7.936-1.984 14.208-1.344 6.336-1.984 13.44-1.984 21.376 3.968 0 10.688-0.768 19.968-2.368h19.968c17.344 1.6 24.64 10.304 22.016 26.112-1.344 7.936-1.984 26.112-1.984 54.592-1.344 25.28-1.344 43.52 0 54.592 2.688 23.744-1.344 35.584-11.968 35.584-9.344 3.136-13.312-7.936-11.968-33.216V454.4c1.344-44.288 1.344-70.4 0-78.272 0-12.672-5.312-20.544-16-23.744a167.872 167.872 0 0 0-56 0c-11.968 1.6-18.688 10.304-19.968 26.112-2.688 30.08-3.968 56.128-3.968 78.272 0 25.28-3.968 37.952-11.968 37.952-9.344 1.6-13.312-10.304-11.968-35.584 2.688-39.552 2.688-73.536 0-102.016-1.344-17.408 4.672-25.28 17.984-23.744h41.984c1.152-4.736 1.792-15.808 1.792-33.216 0-9.472-4.672-13.44-14.016-11.84-11.968 0-25.984 2.368-41.984 7.104-18.688 3.136-29.312 0-32-9.472 5.312-15.808 19.328-22.912 41.984-21.376 2.688 1.6 14.656 2.368 35.968 2.368 54.656 0 92.608 0.768 113.984 2.368 9.344 0 12.032 5.568 8.064 16.576z m-107.968 90.176c14.656 3.136 20.672 11.84 17.984 26.112a420.928 420.928 0 0 0-6.016 42.688c0 60.096-19.968 98.816-59.968 116.224-19.968 9.472-33.344 8.704-40-2.368-2.688-9.472 3.328-16.576 17.984-21.376 49.344-7.936 69.952-53.76 61.952-137.6 0.064-17.344 2.688-25.28 8.064-23.68zM906.24 518.4a11.648 11.648 0 0 1 0-9.472c2.688-3.136 5.312-3.136 8 0 11.968 9.472 26.688 20.544 43.968 33.216a21.12 21.12 0 0 1 8 4.736c8 4.736 8.64 10.304 1.984 16.576-9.344 14.208-19.328 17.408-30.016 9.472a494.848 494.848 0 0 1-31.936-54.528z" p-id="16986"></path></svg>